<svg width="36" height="33" viewBox="0 0 36 33" fill="none" xmlns="http://www.w3.org/2000/svg">
<path d="M35.54 25.6112V1.992C35.54 1.71194 35.4136 1.44334 35.1885 1.2453C34.9635 1.04726 34.6583 0.936005 34.34 0.936005H1.65999C1.34173 0.936005 1.03651 1.04726 0.811463 1.2453C0.58642 1.44334 0.459991 1.71194 0.459991 1.992V31.208C0.45997 31.4262 0.536774 31.6391 0.679844 31.8173C0.822913 31.9956 1.02522 32.1304 1.25894 32.2034C1.49267 32.2763 1.74632 32.2837 1.98504 32.2246C2.22375 32.1655 2.43578 32.0428 2.59199 31.8733L7.39199 26.6672H34.34C34.6583 26.6672 34.9635 26.5559 35.1885 26.3579C35.4136 26.1599 35.54 25.8913 35.54 25.6112ZM33.14 24.5552H6.79999C6.62139 24.5552 6.44504 24.5903 6.28381 24.6579C6.12257 24.7255 5.98051 24.8239 5.86799 24.9459L2.85999 28.216V3.048H33.14V24.5552Z" fill="#564F4F"/>
</svg>
